<svg width="100" height="100" viewBox="0 0 100 100" fill="none" xmlns="http://www.w3.org/2000/svg">
<path d="M50 62.5C56.9036 62.5 62.5 56.9036 62.5 50C62.5 43.0964 56.9036 37.5 50 37.5C43.0964 37.5 37.5 43.0964 37.5 50C37.5 56.9036 43.0964 62.5 50 62.5Z" stroke="#03FFA4" stroke-width="4.16667" stroke-linecap="round" stroke-linejoin="round"/>
<path d="M80.8333 62.5001C80.2787 63.7568 80.1133 65.1509 80.3583 66.5025C80.6034 67.8542 81.2478 69.1014 82.2083 70.0834L82.4584 70.3334C83.2332 71.1074 83.8478 72.0264 84.2672 73.0381C84.6865 74.0497 84.9024 75.1341 84.9024 76.2292C84.9024 77.3244 84.6865 78.4088 84.2672 79.4204C83.8478 80.4321 83.2332 81.3511 82.4584 82.1251C81.6844 82.8999 80.7653 83.5145 79.7537 83.9339C78.742 84.3533 77.6576 84.5691 76.5625 84.5691C75.4674 84.5691 74.383 84.3533 73.3713 83.9339C72.3597 83.5145 71.4406 82.8999 70.6667 82.1251L70.4167 81.8751C69.4347 80.9145 68.1874 80.2701 66.8358 80.0251C65.4842 79.78 64.0901 79.9454 62.8334 80.5001C61.601 81.0283 60.5499 81.9053 59.8096 83.0231C59.0693 84.141 58.672 85.451 58.6667 86.7917V87.5001C58.6667 89.7102 57.7887 91.8298 56.2259 93.3926C54.6631 94.9554 52.5435 95.8334 50.3334 95.8334C48.1232 95.8334 46.0036 94.9554 44.4408 93.3926C42.878 91.8298 42 89.7102 42 87.5001V87.1251C41.9678 85.7459 41.5213 84.4084 40.7188 83.2863C39.9163 82.1643 38.7947 81.3096 37.5 80.8334C36.2433 80.2788 34.8492 80.1133 33.4976 80.3584C32.1459 80.6035 30.8987 81.2478 29.9167 82.2084L29.6667 82.4584C28.8927 83.2332 27.9737 83.8479 26.962 84.2672C25.9504 84.6866 24.866 84.9025 23.7709 84.9025C22.6757 84.9025 21.5913 84.6866 20.5797 84.2672C19.568 83.8479 18.649 83.2332 17.875 82.4584C17.1002 81.6845 16.4856 80.7654 16.0662 79.7537C15.6468 78.7421 15.431 77.6577 15.431 76.5626C15.431 75.4674 15.6468 74.3831 16.0662 73.3714C16.4856 72.3598 17.1002 71.4407 17.875 70.6667L18.125 70.4167C19.0856 69.4347 19.73 68.1875 19.975 66.8359C20.2201 65.4842 20.0547 64.0901 19.5 62.8334C18.9718 61.601 18.0948 60.55 16.977 59.8097C15.8591 59.0694 14.5491 58.6721 13.2084 58.6667H12.5C10.2899 58.6667 8.17027 57.7888 6.60746 56.226C5.04466 54.6632 4.16669 52.5436 4.16669 50.3334C4.16669 48.1233 5.04466 46.0037 6.60746 44.4409C8.17027 42.8781 10.2899 42.0001 12.5 42.0001H12.875C14.2542 41.9678 15.5917 41.5214 16.7138 40.7189C17.8358 39.9163 18.6905 38.7948 19.1667 37.5001C19.7213 36.2433 19.8868 34.8493 19.6417 33.4976C19.3966 32.146 18.7523 30.8987 17.7917 29.9167L17.5417 29.6667C16.7669 28.8928 16.1522 27.9737 15.7329 26.9621C15.3135 25.9504 15.0976 24.866 15.0976 23.7709C15.0976 22.6758 15.3135 21.5914 15.7329 20.5797C16.1522 19.5681 16.7669 18.649 17.5417 17.8751C18.3156 17.1003 19.2347 16.4856 20.2464 16.0662C21.258 15.6469 22.3424 15.431 23.4375 15.431C24.5326 15.431 25.617 15.6469 26.6287 16.0662C27.6403 16.4856 28.5594 17.1003 29.3334 17.8751L29.5834 18.1251C30.5653 19.0857 31.8126 19.73 33.1642 19.9751C34.5159 20.2202 35.91 20.0547 37.1667 19.5001H37.5C38.7324 18.9719 39.7834 18.0949 40.5237 16.977C41.2641 15.8591 41.6613 14.5492 41.6667 13.2084V12.5001C41.6667 10.2899 42.5447 8.17033 44.1075 6.60752C45.6703 5.04472 47.7899 4.16675 50 4.16675C52.2102 4.16675 54.3298 5.04472 55.8926 6.60752C57.4554 8.17033 58.3334 10.2899 58.3334 12.5001V12.8751C58.3387 14.2159 58.736 15.5258 59.4763 16.6437C60.2166 17.7616 61.2676 18.6386 62.5 19.1667C63.7568 19.7214 65.1508 19.8868 66.5025 19.6418C67.8541 19.3967 69.1014 18.7523 70.0833 17.7917L70.3333 17.5417C71.1073 16.7669 72.0264 16.1523 73.038 15.7329C74.0497 15.3135 75.1341 15.0977 76.2292 15.0977C77.3243 15.0977 78.4087 15.3135 79.4204 15.7329C80.432 16.1523 81.3511 16.7669 82.125 17.5417C82.8998 18.3157 83.5145 19.2348 83.9338 20.2464C84.3532 21.2581 84.5691 22.3425 84.5691 23.4376C84.5691 24.5327 84.3532 25.6171 83.9338 26.6287C83.5145 27.6404 82.8998 28.5595 82.125 29.3334L81.875 29.5834C80.9144 30.5654 80.2701 31.8126 80.025 33.1643C79.7799 34.5159 79.9454 35.91 80.5 37.1667V37.5001C81.0282 38.7325 81.9052 39.7835 83.0231 40.5238C84.141 41.2641 85.4509 41.6614 86.7917 41.6667H87.5C89.7102 41.6667 91.8298 42.5447 93.3926 44.1075C94.9554 45.6703 95.8334 47.7899 95.8334 50.0001C95.8334 52.2102 94.9554 54.3298 93.3926 55.8926C91.8298 57.4554 89.7102 58.3334 87.5 58.3334H87.125C85.7842 58.3388 84.4743 58.736 83.3564 59.4764C82.2385 60.2167 81.3615 61.2677 80.8333 62.5001V62.5001Z" stroke="#03FFA4" stroke-width="4.16667" stroke-linecap="round" stroke-linejoin="round"/>
</svg>
