<svg width="149" height="26" viewBox="0 0 149 26" fill="none" xmlns="http://www.w3.org/2000/svg">
<path d="M4.97446 2.51857H5.32978C5.73185 1.82739 6.35833 1.23088 7.19987 0.738529C8.04142 0.246176 9.10737 0 10.3884 0C11.5011 0 12.5671 0.22724 13.5863 0.681719C14.6055 1.1362 15.5031 1.78004 16.2698 2.61326C17.0366 3.437 17.6537 4.43117 18.1025 5.58631C18.5514 6.74144 18.7758 8.0102 18.7758 9.40204C18.7758 10.7939 18.5514 12.0626 18.1025 13.2178C17.6537 14.3729 17.0366 15.3576 16.2698 16.1908C15.5031 17.0146 14.6055 17.6584 13.5863 18.1129C12.5671 18.5674 11.5011 18.7946 10.3884 18.7946C9.10737 18.7946 8.05077 18.5484 7.20922 18.0561C6.36768 17.5637 5.7412 16.9672 5.33913 16.276H4.97446L5.32978 18.7946V26H0V0.577567H4.97446V2.51857ZM9.21023 5.04661C8.63985 5.04661 8.09752 5.15076 7.59259 5.3496C7.07832 5.54843 6.62949 5.84195 6.24612 6.23015C5.8534 6.61835 5.54484 7.07283 5.32043 7.60306C5.09601 8.13328 4.98381 8.72979 4.98381 9.40204C4.98381 10.0743 5.09601 10.6803 5.32043 11.22C5.54484 11.7597 5.8534 12.2141 6.24612 12.5929C6.63884 12.9621 7.08767 13.2556 7.60195 13.4545C8.10687 13.6533 8.6492 13.7575 9.21958 13.7575C9.78996 13.7575 10.3323 13.6533 10.8372 13.4545C11.3421 13.2462 11.8003 12.9621 12.193 12.5929C12.5858 12.2236 12.8943 11.7597 13.1187 11.22C13.3431 10.6803 13.4553 10.0743 13.4553 9.40204C13.4553 8.72979 13.3431 8.13328 13.1187 7.60306C12.8943 7.07283 12.5858 6.61835 12.193 6.23015C11.8003 5.84195 11.3515 5.54843 10.8372 5.3496C10.3229 5.1413 9.78061 5.04661 9.21023 5.04661Z" fill="white"/>
<path d="M21.5903 0.577567H26.5647V2.81209H26.92C27.3969 2.04516 28.0701 1.38237 28.9491 0.833212C29.828 0.274581 30.8005 0 31.8664 0C32.5023 0 33.0633 0.0757465 33.5402 0.236708C34.017 0.397669 34.4098 0.568099 34.7183 0.766934L33.3251 5.58631C33.0165 5.41588 32.6893 5.28332 32.3433 5.18864C31.9973 5.09396 31.5579 5.04661 31.0062 5.04661C29.6784 5.04661 28.6686 5.51056 27.9673 6.44792C27.266 7.38529 26.92 8.6067 26.92 10.1216V18.2265H21.5809V0.577567H21.5903Z" fill="white"/>
<path d="M44.1717 0C45.5275 0 46.7711 0.236708 47.9212 0.700656C49.0713 1.1646 50.0625 1.81792 50.904 2.64166C51.7456 3.4654 52.4001 4.45958 52.8583 5.61471C53.3165 6.76985 53.5502 8.02913 53.5502 9.39257C53.5502 10.756 53.3165 12.0248 52.8583 13.1704C52.4001 14.3256 51.7456 15.3103 50.904 16.1435C50.0625 16.9672 49.0713 17.6205 47.9212 18.0845C46.7711 18.5484 45.5182 18.7851 44.1717 18.7851C42.8252 18.7851 41.5723 18.5484 40.4221 18.0845C39.272 17.6111 38.2809 16.9672 37.4393 16.1435C36.5978 15.3103 35.9433 14.3256 35.4851 13.1704C35.0269 12.0153 34.7932 10.756 34.7932 9.39257C34.7932 8.02913 35.0269 6.76038 35.4851 5.61471C35.9433 4.45958 36.5978 3.47487 37.4393 2.64166C38.2809 1.80845 39.272 1.1646 40.4221 0.700656C41.5629 0.236708 42.8159 0 44.1717 0ZM44.1717 13.7575C44.714 13.7575 45.2283 13.6533 45.7145 13.4545C46.2007 13.2462 46.6309 12.9621 47.0142 12.5929C47.3976 12.2236 47.6875 11.7597 47.9025 11.22C48.1176 10.6803 48.2205 10.0743 48.2205 9.40204C48.2205 8.72979 48.1176 8.13328 47.9025 7.60306C47.6875 7.07283 47.3976 6.61835 47.0142 6.23015C46.6309 5.84195 46.2007 5.54843 45.7145 5.3496C45.2283 5.1413 44.714 5.04661 44.1717 5.04661C43.6294 5.04661 43.1057 5.15076 42.6289 5.3496C42.1426 5.5579 41.7125 5.85142 41.3291 6.23015C40.9458 6.61835 40.6559 7.07283 40.4408 7.60306C40.2258 8.13328 40.1229 8.72979 40.1229 9.40204C40.1229 10.0743 40.2258 10.6803 40.4408 11.22C40.6559 11.7597 40.9458 12.2141 41.3291 12.5929C41.7125 12.9621 42.1426 13.2556 42.6289 13.4545C43.1057 13.6533 43.62 13.7575 44.1717 13.7575Z" fill="#03FFA4"/>
<path d="M60.4883 9.25081L54.5133 0.568359H60.9184L63.5459 4.81963H63.9012L66.323 0.568359H72.9338L66.8186 9.25081L72.8964 18.2173H66.5755L63.8358 13.9282H63.4805L60.8156 18.2173H54.4853L60.4883 9.25081Z" fill="white"/>
<path d="M80.7602 17.4691L73.3639 0.577637H79.5165L83.5372 10.3016H83.8926L87.7356 0.577637H93.748L82.8266 26.0001H76.9919L80.7602 17.4691Z" fill="white"/>
<path d="M99.7136 18.3779V4.9897L96.7308 6.24899L95.3001 2.88773L100.508 0.416504H103.594V18.3779H99.7136Z" fill="white"/>
<path d="M113.328 18.7944C111.673 18.7944 110.261 18.3873 109.111 17.5635C107.961 16.7398 107.166 15.5373 106.717 13.9656L110.429 12.4696C110.794 14.136 111.757 14.9597 113.337 14.9597C113.954 14.9597 114.506 14.7799 114.974 14.4106C115.441 14.0413 115.675 13.549 115.675 12.943C115.675 11.5228 114.684 10.8126 112.692 10.8126H111.159V7.24307H112.589C112.898 7.24307 113.206 7.2052 113.496 7.13892C113.786 7.07264 114.057 6.95902 114.291 6.80753C114.525 6.65604 114.712 6.46667 114.852 6.22049C114.992 5.97432 115.058 5.67133 115.058 5.30207C115.058 4.84759 114.889 4.44045 114.553 4.09012C114.216 3.73979 113.749 3.56936 113.141 3.56936C112.486 3.56936 111.963 3.74926 111.57 4.11853C111.177 4.48779 110.915 4.92333 110.775 5.43462L107.222 3.96703C107.39 3.49362 107.643 3.0202 107.961 2.54679C108.279 2.07337 108.69 1.6473 109.176 1.27803C109.672 0.899299 110.252 0.596313 110.915 0.359605C111.579 0.122897 112.337 0.00927734 113.188 0.00927734C114.067 0.00927734 114.871 0.132365 115.591 0.378542C116.311 0.624718 116.918 0.956109 117.414 1.37272C117.919 1.78932 118.302 2.29114 118.583 2.86871C118.863 3.44628 118.994 4.07119 118.994 4.73397C118.994 5.25472 118.929 5.73761 118.798 6.18262C118.667 6.61816 118.499 7.00636 118.293 7.34722C118.087 7.68808 117.854 7.9816 117.592 8.20884C117.33 8.44555 117.077 8.62545 116.816 8.74853V9.01365C117.648 9.34504 118.33 9.87526 118.863 10.6138C119.396 11.3523 119.668 12.2897 119.668 13.4259C119.668 14.1928 119.518 14.9124 119.228 15.5657C118.938 16.219 118.517 16.7871 117.975 17.27C117.433 17.7529 116.769 18.1316 115.993 18.3967C115.198 18.6619 114.31 18.7944 113.328 18.7944Z" fill="white"/>
<path d="M128.233 18.7944C126.578 18.7944 125.166 18.3873 124.016 17.5635C122.865 16.7398 122.071 15.5373 121.612 13.9656L125.325 12.4696C125.689 14.136 126.652 14.9597 128.233 14.9597C128.85 14.9597 129.401 14.7799 129.869 14.4106C130.336 14.0413 130.57 13.549 130.57 12.943C130.57 11.5228 129.579 10.8126 127.587 10.8126H126.054V7.24307H127.475C127.784 7.24307 128.092 7.2052 128.382 7.13892C128.672 7.07264 128.943 6.95902 129.177 6.80753C129.411 6.65604 129.598 6.46667 129.738 6.22049C129.878 5.97432 129.944 5.67133 129.944 5.30207C129.944 4.84759 129.775 4.44045 129.439 4.09012C129.102 3.73979 128.635 3.56936 128.027 3.56936C127.372 3.56936 126.849 3.74926 126.456 4.11853C126.063 4.48779 125.801 4.92333 125.661 5.43462L122.108 3.96703C122.286 3.49362 122.529 3.0202 122.847 2.54679C123.165 2.07337 123.576 1.6473 124.062 1.27803C124.558 0.899299 125.138 0.596313 125.801 0.359605C126.465 0.122897 127.223 0.00927734 128.074 0.00927734C128.953 0.00927734 129.757 0.132365 130.477 0.378542C131.197 0.624718 131.804 0.956109 132.3 1.37272C132.805 1.78932 133.188 2.29114 133.469 2.86871C133.749 3.44628 133.88 4.07119 133.88 4.73397C133.88 5.25472 133.815 5.73761 133.684 6.18262C133.553 6.61816 133.385 7.00636 133.179 7.34722C132.973 7.68808 132.74 7.9816 132.478 8.20884C132.216 8.44555 131.963 8.62545 131.702 8.74853V9.01365C132.534 9.34504 133.216 9.87526 133.749 10.6138C134.282 11.3523 134.554 12.2897 134.554 13.4259C134.554 14.1928 134.404 14.9124 134.114 15.5657C133.824 16.219 133.403 16.7871 132.861 17.27C132.319 17.7529 131.655 18.1316 130.879 18.3967C130.103 18.6619 129.224 18.7944 128.233 18.7944Z" fill="white"/>
<path d="M144.39 4.09998H136.639L136.695 0.42627H149.009V4.26094L140.762 18.8043L137.546 16.9674L144.521 4.36509L144.39 4.09998Z" fill="white"/>
</svg>
