<svg width="120" height="21" viewBox="0 0 120 21" fill="none" xmlns="http://www.w3.org/2000/svg">
<g clip-path="url(#clip0_735_106)">
<path d="M4.00628 2.03423H4.29244C4.61625 1.47597 5.1208 0.994173 5.79856 0.596504C6.47631 0.198835 7.3348 0 8.36649 0C9.26263 0 10.1211 0.18354 10.942 0.550619C11.7628 0.917699 12.4857 1.43773 13.1032 2.11071C13.7207 2.77604 14.2178 3.57902 14.5792 4.51202C14.9407 5.44501 15.1214 6.46977 15.1214 7.59396C15.1214 8.71814 14.9407 9.7429 14.5792 10.6759C14.2178 11.6089 13.7207 12.4042 13.1032 13.0772C12.4857 13.7425 11.7628 14.2626 10.942 14.6296C10.1211 14.9967 9.26263 15.1803 8.36649 15.1803C7.3348 15.1803 6.48384 14.9814 5.80609 14.5838C5.12833 14.1861 4.62378 13.7043 4.29997 13.146H4.00628L4.29244 15.1803V21H0V0.466497H4.00628V2.03423ZM7.41763 4.07611C6.95827 4.07611 6.52149 4.16023 6.11484 4.32083C5.70066 4.48143 5.33919 4.7185 5.03044 5.03205C4.71415 5.34559 4.46564 5.71267 4.28491 6.14093C4.10417 6.56919 4.01381 7.05098 4.01381 7.59396C4.01381 8.13693 4.10417 8.62637 4.28491 9.06227C4.46564 9.49818 4.71415 9.86526 5.03044 10.1712C5.34672 10.4694 5.70819 10.7065 6.12237 10.8671C6.52902 11.0277 6.9658 11.1118 7.42516 11.1118C7.88453 11.1118 8.32131 11.0277 8.72796 10.8671C9.13461 10.6988 9.50361 10.4694 9.81989 10.1712C10.1362 9.87291 10.3847 9.49818 10.5654 9.06227C10.7462 8.62637 10.8365 8.13693 10.8365 7.59396C10.8365 7.05098 10.7462 6.56919 10.5654 6.14093C10.3847 5.71267 10.1362 5.34559 9.81989 5.03205C9.50361 4.7185 9.14214 4.48143 8.72796 4.32083C8.31377 4.15259 7.877 4.07611 7.41763 4.07611Z" fill="white"/>
<path d="M17.3881 0.466497H21.3944V2.2713H21.6806C22.0646 1.65186 22.6068 1.11653 23.3147 0.672979C24.0226 0.221777 24.8058 0 25.6643 0C26.1763 0 26.6282 0.0611799 27.0122 0.191187C27.3963 0.321194 27.7126 0.458849 27.9611 0.619447L26.839 4.51202C26.5905 4.37436 26.3269 4.2673 26.0483 4.19082C25.7697 4.11435 25.4157 4.07611 24.9714 4.07611C23.9021 4.07611 23.0888 4.45084 22.524 5.20794C21.9592 5.96504 21.6806 6.95157 21.6806 8.17516V14.7214H17.3806V0.466497H17.3881Z" fill="white"/>
<path d="M35.5745 0C36.6665 0 37.668 0.191187 38.5943 0.565914C39.5205 0.940641 40.3188 1.46832 40.9965 2.13365C41.6743 2.79898 42.2014 3.60197 42.5704 4.53496C42.9394 5.46795 43.1277 6.48507 43.1277 7.58631C43.1277 8.68755 42.9394 9.71231 42.5704 10.6377C42.2014 11.5706 41.6743 12.366 40.9965 13.039C40.3188 13.7043 39.5205 14.232 38.5943 14.6067C37.668 14.9814 36.6589 15.1726 35.5745 15.1726C34.4901 15.1726 33.481 14.9814 32.5547 14.6067C31.6285 14.2243 30.8302 13.7043 30.1525 13.039C29.4747 12.366 28.9476 11.5706 28.5786 10.6377C28.2096 9.70466 28.0213 8.68755 28.0213 7.58631C28.0213 6.48507 28.2096 5.46031 28.5786 4.53496C28.9476 3.60197 29.4747 2.80663 30.1525 2.13365C30.8302 1.46067 31.6285 0.940641 32.5547 0.565914C33.4735 0.191187 34.4826 0 35.5745 0ZM35.5745 11.1118C36.0113 11.1118 36.4255 11.0277 36.8171 10.8671C37.2087 10.6988 37.5551 10.4694 37.8638 10.1712C38.1726 9.87291 38.406 9.49818 38.5792 9.06227C38.7524 8.62637 38.8353 8.13693 38.8353 7.59396C38.8353 7.05098 38.7524 6.56919 38.5792 6.14093C38.406 5.71267 38.1726 5.34559 37.8638 5.03205C37.5551 4.7185 37.2087 4.48143 36.8171 4.32083C36.4255 4.15259 36.0113 4.07611 35.5745 4.07611C35.1377 4.07611 34.716 4.16023 34.332 4.32083C33.9404 4.48908 33.594 4.72615 33.2852 5.03205C32.9765 5.34559 32.743 5.71267 32.5698 6.14093C32.3966 6.56919 32.3138 7.05098 32.3138 7.59396C32.3138 8.13693 32.3966 8.62637 32.5698 9.06227C32.743 9.49818 32.9765 9.86526 33.2852 10.1712C33.594 10.4694 33.9404 10.7065 34.332 10.8671C34.716 11.0277 35.1302 11.1118 35.5745 11.1118Z" fill="#03FFA4"/>
<path d="M48.7154 7.47173L43.9034 0.458984H49.0618L51.1779 3.89271H51.4641L53.4145 0.458984H58.7386L53.8136 7.47173L58.7085 14.7139H53.6178L51.4114 11.2496H51.1252L48.979 14.7139H43.8808L48.7154 7.47173Z" fill="white"/>
<path d="M65.0417 14.1099L59.085 0.466797H64.0402L67.2783 8.32077H67.5645L70.6595 0.466797H75.5017L66.706 21.0003H62.0069L65.0417 14.1099Z" fill="white"/>
<path d="M80.3062 14.8442V4.03065L77.904 5.04777L76.7518 2.33291L80.9463 0.336914H83.4314V14.8442H80.3062Z" fill="white"/>
<path d="M91.2708 15.1804C89.9379 15.1804 88.8008 14.8516 87.8745 14.1863C86.9482 13.5209 86.3081 12.5497 85.9467 11.2802L88.9363 10.0719C89.23 11.4179 90.0057 12.0832 91.2783 12.0832C91.7753 12.0832 92.2196 11.9379 92.5962 11.6396C92.9727 11.3414 93.161 10.9437 93.161 10.4543C93.161 9.30716 92.3627 8.73359 90.7587 8.73359H89.5237V5.85049H90.6759C90.9244 5.85049 91.1729 5.8199 91.4063 5.76637C91.6398 5.71284 91.8582 5.62107 92.0464 5.49871C92.2347 5.37635 92.3853 5.2234 92.4983 5.02456C92.6112 4.82573 92.664 4.58101 92.664 4.28276C92.664 3.91568 92.5284 3.58684 92.2573 3.30388C91.9862 3.02092 91.6097 2.88327 91.1202 2.88327C90.593 2.88327 90.1713 3.02857 89.855 3.32682C89.5388 3.62507 89.3279 3.97686 89.2149 4.38982L86.3533 3.20446C86.4889 2.82209 86.6922 2.43971 86.9482 2.05734C87.2043 1.67496 87.5356 1.33083 87.9272 1.03258C88.3263 0.726676 88.7932 0.481957 89.3279 0.29077C89.8626 0.0995823 90.4726 0.0078125 91.1578 0.0078125C91.8657 0.0078125 92.5133 0.10723 93.0932 0.306065C93.6731 0.504899 94.1625 0.772561 94.5617 1.10905C94.9683 1.44554 95.2771 1.85086 95.503 2.31735C95.7289 2.78385 95.8343 3.28858 95.8343 3.82391C95.8343 4.24452 95.7816 4.63454 95.6762 4.99397C95.5708 5.34576 95.4352 5.65931 95.2695 5.93461C95.1039 6.20992 94.9156 6.447 94.7047 6.63054C94.4939 6.82172 94.2906 6.96703 94.0797 7.06644V7.28057C94.7499 7.54823 95.2997 7.97649 95.7289 8.573C96.1582 9.1695 96.3765 9.9266 96.3765 10.8443C96.3765 11.4637 96.2561 12.045 96.0226 12.5726C95.7892 13.1003 95.4503 13.5592 95.0135 13.9492C94.5767 14.3392 94.0421 14.6451 93.417 14.8592C92.7769 15.0734 92.0615 15.1804 91.2708 15.1804Z" fill="white"/>
<path d="M103.275 15.1804C101.942 15.1804 100.805 14.8516 99.8783 14.1863C98.952 13.5209 98.3119 12.5497 97.9429 11.2802L100.933 10.0719C101.226 11.4179 102.002 12.0832 103.275 12.0832C103.772 12.0832 104.216 11.9379 104.592 11.6396C104.969 11.3414 105.157 10.9437 105.157 10.4543C105.157 9.30716 104.359 8.73359 102.755 8.73359H101.52V5.85049H102.665C102.913 5.85049 103.162 5.8199 103.395 5.76637C103.629 5.71284 103.847 5.62107 104.035 5.49871C104.223 5.37635 104.374 5.2234 104.487 5.02456C104.6 4.82573 104.653 4.58101 104.653 4.28276C104.653 3.91568 104.517 3.58684 104.246 3.30388C103.975 3.02092 103.598 2.88327 103.109 2.88327C102.582 2.88327 102.16 3.02857 101.844 3.32682C101.527 3.62507 101.317 3.97686 101.204 4.38982L98.342 3.20446C98.4851 2.82209 98.6809 2.43971 98.9369 2.05734C99.193 1.67496 99.5243 1.33083 99.9159 1.03258C100.315 0.726676 100.782 0.481957 101.317 0.29077C101.851 0.0995823 102.461 0.0078125 103.147 0.0078125C103.854 0.0078125 104.502 0.10723 105.082 0.306065C105.662 0.504899 106.151 0.772561 106.55 1.10905C106.957 1.44554 107.266 1.85086 107.492 2.31735C107.718 2.78385 107.823 3.28858 107.823 3.82391C107.823 4.24452 107.77 4.63454 107.665 4.99397C107.559 5.34576 107.424 5.65931 107.258 5.93461C107.093 6.20992 106.904 6.447 106.693 6.63054C106.483 6.82172 106.279 6.96703 106.068 7.06644V7.28057C106.739 7.54823 107.288 7.97649 107.718 8.573C108.147 9.1695 108.365 9.9266 108.365 10.8443C108.365 11.4637 108.245 12.045 108.011 12.5726C107.778 13.1003 107.439 13.5592 107.002 13.9492C106.565 14.3392 106.031 14.6451 105.406 14.8592C104.781 15.0734 104.073 15.1804 103.275 15.1804Z" fill="white"/>
<path d="M116.287 3.31098H110.045L110.09 0.34375H120.008V3.44098L113.366 15.1875L110.775 13.7039L116.393 3.52511L116.287 3.31098Z" fill="white"/>
</g>
<defs>
<clipPath id="clip0_735_106">
<rect width="120" height="21" fill="white"/>
</clipPath>
</defs>
</svg>
